<?xml version="1.0" encoding="utf-8"?>
<!-- Generator: Adobe Illustrator 27.0.0, SVG Export Plug-In . SVG Version: 6.00 Build 0)  -->
<svg version="1.1" id="Layer_1" xmlns="http://www.w3.org/2000/svg" xmlns:xlink="http://www.w3.org/1999/xlink" x="0px" y="0px"
	 viewBox="0 0 800 800" style="enable-background:new 0 0 800 800;" xml:space="preserve">
<path d="M426.7,757.3H173.3c-39.8,0-61.8,0-81.2-9.9C75,738.7,61.3,725,52.5,707.8c-9.9-19.4-9.9-41.3-9.9-81.2V373.3
	c0-39.8,0-61.8,9.9-81.2c8.7-17.2,22.4-30.9,39.6-39.6c19.4-9.9,41.3-9.9,81.2-9.9h69.3v-69.3c0-39.8,0-61.8,9.9-81.2
	c8.7-17.2,22.4-30.9,39.6-39.6c19.4-9.9,41.3-9.9,81.2-9.9h253.3c39.8,0,61.8,0,81.2,9.9c17.2,8.8,30.9,22.5,39.6,39.6
	c9.9,19.4,9.9,41.3,9.9,81.2v253.3c0,39.8,0,61.8-9.9,81.2c-8.7,17.2-22.4,30.9-39.6,39.6c-19.4,9.9-41.3,9.9-81.2,9.9h-69.3v69.3
	c0,39.8,0,61.8-9.9,81.2c-8.7,17.2-22.4,30.9-39.6,39.6C488.4,757.3,466.5,757.3,426.7,757.3z M173.3,290.7c-32.4,0-50.2,0-59.4,4.7
	c-8.1,4.1-14.5,10.6-18.6,18.6c-4.7,9.1-4.7,27-4.7,59.4v253.3c0,32.4,0,50.2,4.7,59.4c4.1,8.1,10.6,14.5,18.6,18.6
	c9.1,4.7,27,4.7,59.4,4.7h253.3c32.4,0,50.2,0,59.4-4.7c8.1-4.1,14.5-10.6,18.6-18.6c4.7-9.1,4.7-27,4.7-59.4v-69.3h-136
	c-39.8,0-61.8,0-81.2-9.9c-17.2-8.7-30.9-22.4-39.6-39.6c-9.9-19.4-9.9-41.3-9.9-81.2v-136H173.3z M290.7,266.7v160
	c0,32.4,0,50.2,4.7,59.4c4.1,8.1,10.6,14.5,18.6,18.6c9.1,4.7,27,4.7,59.4,4.7h253.3c32.4,0,50.2,0,59.4-4.7
	c8.1-4.1,14.5-10.6,18.6-18.6c4.7-9.1,4.7-27,4.7-59.4V173.3c0-32.4,0-50.2-4.7-59.4c-4.1-8.1-10.6-14.5-18.6-18.6
	c-9.1-4.7-27-4.7-59.4-4.7H373.3c-32.4,0-50.2,0-59.4,4.7c-8.1,4.1-14.5,10.6-18.6,18.6c-4.7,9.1-4.7,27-4.7,59.4V266.7z"/>
</svg>
