<?xml version="1.0" encoding="utf-8"?>
<!-- Generator: Adobe Illustrator 27.0.0, SVG Export Plug-In . SVG Version: 6.00 Build 0)  -->
<svg version="1.1" id="Layer_1" xmlns="http://www.w3.org/2000/svg" xmlns:xlink="http://www.w3.org/1999/xlink" x="0px" y="0px"
	 viewBox="0 0 800 800" style="enable-background:new 0 0 800 800;" xml:space="preserve">
<path d="M700,724H244.2c-17.6,0-27.3,0-37.7-2.5c-9.3-2.2-18.1-5.9-26.2-10.9c-9.2-5.6-16-12.5-28.5-24.9l-22.3-22.3
	C87.2,621.2,66,600,56.8,571.7c-8.1-25.1-8.1-51.6,0-76.6c9.2-28.3,30.4-49.5,72.7-91.8l220.2-220.2c0,0,0,0,0,0c0,0,0,0,0,0
	l53.5-53.5C445.5,87.2,466.7,66,495,56.8c25.1-8.1,51.6-8.1,76.6,0c28.3,9.2,49.5,30.4,91.8,72.7l7.1,7.1
	c42.3,42.3,63.5,63.5,72.7,91.8c8.1,25.1,8.1,51.6,0,76.6c-9.2,28.3-30.4,49.5-72.7,91.8L391.3,676H700c13.3,0,24,10.7,24,24
	S713.2,724,700,724z M371.8,676L371.8,676l-7.2-7.2L371.8,676z M366.6,233.9L163.4,437.2c-36.8,36.8-55.3,55.3-61,72.7
	c-5,15.4-5,31.6,0,47c5.6,17.4,24.1,35.8,61,72.7l22.3,22.3c10.2,10.2,15.3,15.3,19.6,17.9c3.8,2.3,8,4.1,12.3,5.1
	c4.9,1.2,12.1,1.2,26.5,1.2h45c14.4,0,21.6,0,26.5-1.2c4.4-1,8.5-2.8,12.3-5.1c4.3-2.6,9.4-7.7,19.6-17.9l17,17l-17-17L566,433.3
	L366.6,233.9z M400.6,200L600,399.4l36.6-36.6c36.8-36.8,55.3-55.3,61-72.7c5-15.4,5-31.6,0-47c-5.6-17.4-24.1-35.8-61-72.7
	l-7.1-7.1c-36.8-36.8-55.3-55.3-72.7-61c-15.4-5-31.6-5-47,0c-17.4,5.6-35.8,24.1-72.7,60.9L400.6,200z"/>
</svg>
