<?xml version="1.0" encoding="UTF-8"?>
<svg id="Layer_5" data-name="Layer 5" xmlns="http://www.w3.org/2000/svg" width="800" height="800" viewBox="0 0 800 800">
  <defs>
    <style>
      .cls-1 {
        fill: #231f20;
      }
    </style>
  </defs>
  <path class="cls-1" d="M279.95,726c-5.43,0-10.75-1.84-15.06-5.31-5.65-4.56-8.94-11.43-8.94-18.69V98c0-7.12,3.17-13.88,8.64-18.44,5.48-4.56,12.69-6.45,19.7-5.16l386.05,71c11.39,2.09,19.66,12.02,19.66,23.6v449c0,11.29-7.87,21.05-18.9,23.45l-386.05,84c-1.69,.37-3.4,.55-5.1,.55Zm24-599.18V672.22l338.05-73.56V188.99l-338.05-62.17Zm362.05,491.18h0Z"/>
  <path class="cls-1" d="M279.95,726c-2.13,0-4.28-.28-6.39-.87l-145.95-40.29c-10.41-2.87-17.61-12.34-17.61-23.13V126.71c0-11.47,8.11-21.34,19.37-23.55l145.95-28.71c7.04-1.38,14.33,.45,19.88,5.01,5.54,4.56,8.75,11.36,8.75,18.54V702c0,7.49-3.5,14.56-9.46,19.1-4.23,3.22-9.34,4.9-14.54,4.9Zm-121.95-82.57l97.95,27.04V127.18l-97.95,19.27v496.99Z"/>
</svg>