<?xml version="1.0" encoding="UTF-8"?>
<svg id="Layer_3" data-name="Layer 3" xmlns="http://www.w3.org/2000/svg" width="800" height="800" viewBox="0 0 800 800">
  <defs>
    <style>
      .cls-1 {
        fill: #231f20;
      }
    </style>
  </defs>
  <path class="cls-1" d="M559.98,650.97c-11.17,0-21.18-7.85-23.49-19.22-2.64-12.99,5.75-25.66,18.74-28.3l29.78-6.06v-30.39c0-13.25,10.75-24,24-24s24,10.75,24,24v50c0,11.41-8.04,21.25-19.22,23.52l-49,9.96c-1.61,.33-3.22,.49-4.81,.49Z"/>
  <path class="cls-1" d="M346.64,694.35c-11.17,0-21.18-7.85-23.49-19.22-2.64-12.99,5.75-25.66,18.74-28.3l106.67-21.69c12.99-2.64,25.66,5.75,28.3,18.74,2.64,12.99-5.75,25.66-18.74,28.3l-106.67,21.69c-1.61,.33-3.22,.49-4.81,.49Z"/>
  <path class="cls-1" d="M191,726c-5.49,0-10.86-1.88-15.19-5.42-5.58-4.56-8.81-11.38-8.81-18.58v-50c0-13.25,10.75-24,24-24s24,10.75,24,24v20.63l20.21-4.11c12.99-2.64,25.66,5.75,28.3,18.74,2.64,12.99-5.75,25.66-18.74,28.3l-49,9.96c-1.59,.32-3.19,.48-4.78,.48Z"/>
  <path class="cls-1" d="M191,575.2c-13.25,0-24-10.75-24-24v-100.8c0-13.25,10.75-24,24-24s24,10.75,24,24v100.8c0,13.25-10.75,24-24,24Zm0-201.6c-13.25,0-24-10.75-24-24v-100.8c0-13.25,10.75-24,24-24s24,10.75,24,24v100.8c0,13.25-10.75,24-24,24Z"/>
  <path class="cls-1" d="M191,172c-13.25,0-24-10.75-24-24v-50c0-7.06,3.11-13.76,8.49-18.32s12.51-6.52,19.47-5.35l49.31,8.26c13.07,2.19,21.9,14.56,19.71,27.63-2.19,13.07-14.57,21.89-27.63,19.71l-21.35-3.58v21.65c0,13.25-10.75,24-24,24Z"/>
  <path class="cls-1" d="M453.26,165.92c-1.32,0-2.65-.11-3.99-.33l-106.46-17.83c-13.07-2.19-21.9-14.56-19.71-27.63,2.19-13.07,14.56-21.89,27.63-19.71l106.46,17.83c13.07,2.19,21.9,14.56,19.71,27.63-1.96,11.73-12.13,20.04-23.64,20.04Z"/>
  <path class="cls-1" d="M609,242c-13.25,0-24-10.75-24-24v-29.69l-29.28-4.9c-13.07-2.19-21.9-14.56-19.71-27.63,2.19-13.07,14.57-21.89,27.63-19.71l49.31,8.26c11.56,1.94,20.04,11.95,20.04,23.67v50c0,13.25-10.75,24-24,24Z"/>
  <path class="cls-1" d="M609,474.67c-13.25,0-24-10.75-24-24v-116.33c0-13.25,10.75-24,24-24s24,10.75,24,24v116.33c0,13.25-10.75,24-24,24Z"/>
</svg>