<?xml version="1.0" encoding="UTF-8"?>
<svg id="Layer_4" data-name="Layer 4" xmlns="http://www.w3.org/2000/svg" width="800" height="800" viewBox="0 0 800 800">
  <defs>
    <style>
      .cls-1 {
        fill: #231f20;
      }
    </style>
  </defs>
  <path class="cls-1" d="M609.85,201.57c-13.25,0-24-10.75-24-24,0-3.7-8.4-17.25-45.72-30.59-37.23-13.31-87.21-20.63-140.75-20.63s-103.52,7.33-140.75,20.63c-37.32,13.34-45.72,26.9-45.72,30.59,0,13.25-10.75,24-24,24s-24-10.75-24-24c0-21.93,13.46-52.88,77.57-75.79,42.28-15.11,98-23.43,156.91-23.43s114.62,8.32,156.9,23.43c64.11,22.91,77.57,53.86,77.57,75.79,0,13.25-10.75,24-24,24Z"/>
  <path class="cls-1" d="M158.57,641.46c-9.97,0-19.28-6.26-22.7-16.22-22.61-65.87-29.59-112.77-24.1-161.89,2.89-25.88,13.12-45.76,23.95-66.79,10.12-19.67,21.59-41.95,29.92-74.78,6.16-24.31,4.38-41.42,1.91-65.11-2.09-20.04-4.45-42.75-2.61-74.52,.77-13.23,12.11-23.35,25.35-22.57,13.23,.77,23.34,12.12,22.57,25.35-1.62,27.89,.44,47.66,2.43,66.77,2.64,25.35,5.14,49.29-3.13,81.88-9.67,38.13-23.03,64.09-33.77,84.95-9.88,19.19-17.01,33.06-18.93,50.16-4.64,41.5,1.68,82.35,21.8,140.97,4.3,12.54-2.37,26.19-14.91,30.49-2.58,.89-5.21,1.31-7.79,1.31Z"/>
  <path class="cls-1" d="M399.37,721.54c-67,0-130.34-9.45-178.35-26.61-71.45-25.54-86.45-59.48-86.45-83.46h48c0,6.48,11.41,22.82,54.61,38.26,42.96,15.35,100.56,23.81,162.2,23.81s119.24-8.46,162.2-23.81c43.19-15.44,54.61-31.78,54.61-38.26h48c0,23.98-15,57.92-86.45,83.46-48.01,17.16-111.35,26.61-178.35,26.61Z"/>
  <path class="cls-1" d="M639.71,640.29c-2.75,0-5.54-.48-8.27-1.48-12.44-4.57-18.82-18.36-14.25-30.8,21.46-58.41,28.19-99.06,23.26-140.31-2.02-16.86-9.62-30.65-20.14-49.75-11.51-20.9-25.84-46.91-36.22-85.16-8.55-31.51-5.99-55.52-3.27-80.94,2.08-19.5,4.24-39.67,2.48-68-.82-13.23,9.24-24.62,22.46-25.44,13.26-.82,24.62,9.24,25.44,22.46,2.01,32.38-.58,56.61-2.66,76.08-2.51,23.49-4.32,40.46,1.87,63.27,8.87,32.7,21.13,54.94,31.94,74.57,11.64,21.12,22.63,41.07,25.75,67.21,5.91,49.37-1.59,96.47-25.86,162.56-3.57,9.71-12.75,15.73-22.53,15.73Z"/>
  <g>
    <path class="cls-1" d="M399.37,120.24c-9.94,0-18-8.06-18-18v-35c0-9.94,8.06-18,18-18s18,8.06,18,18v35c0,9.94-8.06,18-18,18Z"/>
    <path class="cls-1" d="M399.37,649.59c-9.94,0-18-8.06-18-18v-66.17c0-9.94,8.06-18,18-18s18,8.06,18,18v66.17c0,9.94-8.06,18-18,18Zm0-132.34c-9.94,0-18-8.06-18-18v-66.17c0-9.94,8.06-18,18-18s18,8.06,18,18v66.17c0,9.94-8.06,18-18,18Zm0-132.34c-9.94,0-18-8.06-18-18v-66.17c0-9.94,8.06-18,18-18s18,8.06,18,18v66.17c0,9.94-8.06,18-18,18Zm0-132.34c-9.94,0-18-8.06-18-18v-66.17c0-9.94,8.06-18,18-18s18,8.06,18,18v66.17c0,9.94-8.06,18-18,18Z"/>
    <path class="cls-1" d="M399.37,750.76c-9.94,0-18-8.06-18-18v-35c0-9.94,8.06-18,18-18s18,8.06,18,18v35c0,9.94-8.06,18-18,18Z"/>
  </g>
  <path class="cls-1" d="M399.56,263.65c-58.23,0-113.24-8.2-154.89-23.08-60.82-21.74-73.59-50.14-73.59-70.14h36c0,9.2,15.37,23.97,49.7,36.24,37.86,13.53,88.56,20.98,142.77,20.98s104.91-7.45,142.77-20.98c24.74-8.84,49.7-23.48,49.7-36.24h36c0,20-12.77,48.4-73.59,70.14-41.65,14.89-96.65,23.08-154.89,23.08Z"/>
</svg>