<?xml version="1.0" encoding="UTF-8"?>
<svg id="Layer_1" data-name="Layer 1" xmlns="http://www.w3.org/2000/svg" width="800" height="800" viewBox="0 0 800 800">
  <defs>
    <style>
      .cls-1 {
        fill: #231f20;
      }
    </style>
  </defs>
  <path class="cls-1" d="M345.97,616.79c-32.06,25.65-48.15,38.52-68.23,38.54h-.06c-17.54,0-33.87-7.86-44.81-21.57-12.52-15.69-12.52-36.3-12.52-77.38V244.99c0-41.07,0-61.69,12.53-77.38,10.94-13.71,27.27-21.57,44.81-21.57h.06c20.08,.02,36.16,12.89,68.21,38.53l194.66,155.73c20.54,16.44,31.85,25.49,37.39,40.27,4.86,12.97,4.86,27.26,0,40.23-5.54,14.79-16.85,23.83-37.37,40.26l-194.65,155.72m187.14-212.96s0,0,0-.01c0,0,0,0,0,.01Zm-262.33,200.61s0,0,0,0c0,0,0,0,0,0Z"/>
</svg>