<?xml version="1.0" encoding="UTF-8"?>
<svg id="Layer_7" data-name="Layer 7" xmlns="http://www.w3.org/2000/svg" width="800" height="800" viewBox="0 0 800 800">
  <polygon points="400 610 210.86 400 400 199 589.14 400 400 610"/>
  <path d="M400,634c-6.8,0-13.28-2.88-17.83-7.94l-189.14-210c-8.36-9.28-8.2-23.41,.35-32.51l189.14-201c4.54-4.82,10.86-7.55,17.48-7.55s12.94,2.73,17.48,7.55l189.14,201c8.56,9.09,8.71,23.23,.35,32.51l-189.14,210c-4.55,5.05-11.03,7.94-17.83,7.94Zm-156.52-233.64l156.52,173.78,156.52-173.78-156.52-166.33-156.52,166.33Z"/>
</svg>