<?xml version="1.0" encoding="UTF-8"?>
<svg id="Layer_8" data-name="Layer 8" xmlns="http://www.w3.org/2000/svg" width="800" height="800" viewBox="0 0 800 800">
  <defs>
    <style>
      .cls-1 {
        fill: #fee361;
      }
    </style>
  </defs>
  <path class="cls-1" d="M400,547.95c-6.8,0-13.28-2.88-17.83-7.94l-189.14-210c-8.36-9.28-8.2-23.41,.35-32.51L382.52,96.51c4.54-4.82,10.86-7.55,17.48-7.55s12.94,2.73,17.48,7.55l189.14,201c8.56,9.09,8.71,23.23,.35,32.51l-189.14,210c-4.55,5.05-11.03,7.94-17.83,7.94Z"/>
  <path d="M400,711.05h-.03c-6.81,0-13.3-2.91-17.84-7.98l-189.14-211c-8.85-9.87-8.02-25.04,1.85-33.89,9.87-8.85,25.04-8.02,33.89,1.85l171.31,191.11,171.27-190.15c8.87-9.85,24.04-10.64,33.89-1.77s10.64,24.05,1.77,33.89l-189.14,210c-4.55,5.05-11.03,7.94-17.83,7.94Z"/>
</svg>