<?xml version="1.0" encoding="utf-8"?>
<!-- Generator: Adobe Illustrator 27.0.0, SVG Export Plug-In . SVG Version: 6.00 Build 0)  -->
<svg version="1.1" id="Layer_1" xmlns="http://www.w3.org/2000/svg" xmlns:xlink="http://www.w3.org/1999/xlink" x="0px" y="0px"
	 viewBox="0 0 800 800" style="enable-background:new 0 0 800 800;" xml:space="preserve">
<path d="M400,757.3H293.3c-59.8,0-89.8,0-116.3-13.5c-23.5-12-42.2-30.7-54.2-54.2c-13.5-26.5-13.5-56.5-13.5-116.3V226.7
	c0-59.8,0-89.8,13.5-116.3c12-23.5,30.7-42.2,54.2-54.2c26.5-13.5,56.5-13.5,116.3-13.5h213.3c59.8,0,89.8,0,116.3,13.5
	c23.5,12,42.2,30.7,54.2,54.2c13.5,26.5,13.5,56.5,13.5,116.3V400c0,13.3-10.7,24-24,24s-24-10.7-24-24V226.7
	c0-52.1,0-78.2-8.3-94.5c-7.3-14.4-18.8-25.9-33.2-33.2c-16.3-8.3-42.4-8.3-94.5-8.3H293.3c-52.1,0-78.2,0-94.5,8.3
	c-14.4,7.3-25.9,18.8-33.2,33.2c-8.3,16.3-8.3,42.4-8.3,94.5v346.7c0,52.1,0,78.2,8.3,94.5c7.3,14.4,18.8,25.9,33.2,33.2
	c16.3,8.3,42.4,8.3,94.5,8.3H400c13.3,0,24,10.7,24,24S413.3,757.3,400,757.3z M700,724c-6.1,0-12.3-2.3-17-7l-66.4-66.4L550.3,717
	c-9.4,9.4-24.6,9.4-33.9,0c-9.4-9.4-9.4-24.6,0-33.9l66.4-66.4l-66.4-66.4c-9.4-9.4-9.4-24.6,0-33.9c9.4-9.4,24.6-9.4,33.9,0
	l66.4,66.4l66.4-66.4c9.4-9.4,24.6-9.4,33.9,0c9.4,9.4,9.4,24.6,0,33.9l-66.4,66.4L717,683c9.4,9.4,9.4,24.6,0,33.9
	C712.3,721.7,706.1,724,700,724z"/>
</svg>
