<?xml version="1.0" encoding="utf-8"?>
<!-- Generator: Adobe Illustrator 27.0.0, SVG Export Plug-In . SVG Version: 6.00 Build 0)  -->
<svg version="1.1" id="Layer_1" xmlns="http://www.w3.org/2000/svg" xmlns:xlink="http://www.w3.org/1999/xlink" x="0px" y="0px"
	 viewBox="0 0 800 800" style="enable-background:new 0 0 800 800;" xml:space="preserve">
<path d="M593.3,733.3h-60c-18.4,0-33.3-14.9-33.3-33.3s14.9-33.3,33.3-33.3h60c28.9,0,48,0,55.1-3.6c6.3-3.2,11.4-8.3,14.6-14.6
	c3.6-7.1,3.6-26.2,3.6-55.1v-60c0-18.4,14.9-33.3,33.3-33.3s33.3,14.9,33.3,33.3v60c0,41.3,0,64-10.9,85.4
	c-9.6,18.9-24.8,34.1-43.7,43.7C657.3,733.3,634.6,733.3,593.3,733.3z M266.7,733.3h-60c-41.3,0-64,0-85.4-10.9
	c-18.9-9.6-34-24.8-43.7-43.7c-10.9-21.4-10.9-44.1-10.9-85.4v-60c0-18.4,14.9-33.3,33.3-33.3s33.3,14.9,33.3,33.3v60
	c0,28.9,0,48,3.6,55.1c3.2,6.3,8.3,11.4,14.6,14.6c7.1,3.6,26.2,3.6,55.1,3.6h60c18.4,0,33.3,14.9,33.3,33.3
	S285.1,733.3,266.7,733.3z M400,566.7c-91.9,0-166.7-74.8-166.7-166.7c0-91.9,74.8-166.7,166.7-166.7c91.9,0,166.7,74.8,166.7,166.7
	C566.7,491.9,491.9,566.7,400,566.7z M400,300c-55.1,0-100,44.9-100,100c0,55.1,44.9,100,100,100c55.1,0,100-44.9,100-100
	C500,344.9,455.1,300,400,300z M700,300c-18.4,0-33.3-14.9-33.3-33.3v-60c0-28.9,0-48-3.6-55.1c-3.2-6.3-8.3-11.4-14.6-14.6
	c-7.1-3.6-26.2-3.6-55.1-3.6h-60c-18.4,0-33.3-14.9-33.3-33.3s14.9-33.3,33.3-33.3h60c41.3,0,64,0,85.4,10.9
	c18.9,9.7,34.1,24.8,43.7,43.7c10.9,21.4,10.9,44.1,10.9,85.4v60C733.3,285.1,718.4,300,700,300z M100,300
	c-18.4,0-33.3-14.9-33.3-33.3v-60c0-41.3,0-64,10.9-85.4c9.7-18.9,24.8-34.1,43.7-43.7c21.4-10.9,44.1-10.9,85.4-10.9h60
	c18.4,0,33.3,14.9,33.3,33.3s-14.9,33.3-33.3,33.3h-60c-28.9,0-48,0-55.1,3.6c-6.3,3.2-11.4,8.3-14.6,14.6
	c-3.6,7.1-3.6,26.2-3.6,55.1v60C133.3,285.1,118.4,300,100,300z"/>
</svg>
