<?xml version="1.0" encoding="utf-8"?>
<!-- Generator: Adobe Illustrator 27.0.0, SVG Export Plug-In . SVG Version: 6.00 Build 0)  -->
<svg version="1.1" id="Layer_1" xmlns="http://www.w3.org/2000/svg" xmlns:xlink="http://www.w3.org/1999/xlink" x="0px" y="0px"
	 viewBox="0 0 800 800" style="enable-background:new 0 0 800 800;" xml:space="preserve">
<path d="M172.4,698c-11.8,0-23.4-0.3-34.8-0.6c-10.6-0.3-20.7-0.5-30.3-0.5c-8.4,0-16.2-4.4-20.6-11.7c-4.3-7.2-4.6-16.2-0.6-23.6
	c11.5-21.5,10.3-47.9,9.1-75.7c-1.6-35.5-3.3-75.7,26.6-104.4c24.6-23.6,57.2-36.5,91.8-36.5c6.1,0,12.2,0.4,18.2,1.2
	c-1-16.2,3-32.6,11.8-47c6.4-10.3,15-18,32.2-33.3l28-24.9c0.1-0.1,0.1-0.1,0.2-0.2L575.4,99.6c35.8-31.8,90.9-30.8,125.4,2.3
	c16.9,16.3,26.5,38,27,61.1c0.4,23.1-8.3,45.1-24.5,62L452,485.4c0,0-0.1,0.1-0.1,0.1c-0.1,0.1-0.2,0.2-0.2,0.2l-25.8,26.7
	c0,0,0,0,0,0l-17.3-16.7l17.2,16.7c-15.4,15.9-23.9,24.7-34.5,30.8c-14.8,8.4-31.8,12-48.5,11c0.7,5.5,1.1,11,1.1,16.6
	c0,33.8-13.7,65.6-38.5,89.4L288.7,643l16.6,17.3C271.4,692.8,221.4,698,172.4,698z M140.6,649.5c49.1,1.2,104.3,2.3,131.4-23.8
	c0,0,0,0,0,0c15.3-14.7,23.7-34.2,23.7-54.8s-8.4-40.1-23.7-54.8c-32.3-31-84.8-31-117.1,0c-13.5,13-13.3,34.2-11.8,67.6
	C144.1,604.5,145.1,627.1,140.6,649.5z M319.2,391.5l-11.5,10.2c-12.8,11.4-20.6,18.3-23.2,22.6c-6.3,10.2-6.5,22.5-0.7,33
	c2.5,4.4,9.9,11.6,22.3,23.4c12.4,11.9,19.9,19.1,24.6,21.5c11.5,6,25.6,5.7,36.9-0.7c4.6-2.6,11.8-10,23.7-22.3l17.3,16.6
	l-17.3-16.7l9.3-9.6L319.2,391.5z M355.2,359.5l78.7,75.5l234.8-243.4c7.3-7.6,11.3-17.4,11.1-27.7c-0.2-10.3-4.5-20-12.2-27.4
	c-16.3-15.6-43.3-16.1-60.2-1.1L355.2,359.5z"/>
</svg>
