<?xml version="1.0" encoding="utf-8"?>
<!-- Generator: Adobe Illustrator 27.0.0, SVG Export Plug-In . SVG Version: 6.00 Build 0)  -->
<svg version="1.1" id="Layer_1" xmlns="http://www.w3.org/2000/svg" xmlns:xlink="http://www.w3.org/1999/xlink" x="0px" y="0px"
	 viewBox="0 0 800 800" style="enable-background:new 0 0 800 800;" xml:space="preserve">
<path d="M137.5,767.9c-13,0-25.8-0.3-37.9-0.7c-11.6-0.3-22.6-0.6-33-0.6c-11.6,0-22.4-6-28.4-16s-6.5-22.3-1.2-32.6
	c12-23.4,10.8-52.9,9.5-84.2c-1.8-41.6-3.7-88.8,30.8-123.4c32.5-32.5,76.4-47,118.9-43.3c0.2-17.2,4.8-34.4,13.8-49.6
	c7.4-12.6,17.8-22.2,36.5-39.5L575.5,73.6c20.4-18.9,46.9-29,74.6-28.4c27.8,0.5,53.8,11.6,73.5,31.3c19.6,19.6,30.7,45.7,31.3,73.5
	c0.5,27.8-9.6,54.3-28.4,74.6L450.7,522.3c-0.2,0.2-0.4,0.4-0.6,0.7l-28.2,30.5c0,0,0,0,0,0l-24.5-22.6l24.4,22.7
	c-17.3,18.7-26.9,29-39.4,36.4c-15.2,9-32.3,13.6-49.5,13.8c0.4,4.3,0.5,8.6,0.5,12.9c0,40.1-15.6,77.7-43.9,106.1l-23.6-23.6
	l23.6,23.6c-22.3,22.3-52.9,36-93.3,41.7C177,767.2,157,767.9,137.5,767.9z M111.3,700.9c50.3,1.2,104.7,1,130.9-25.3
	c15.7-15.7,24.4-36.7,24.4-58.9c0-22.3-8.7-43.2-24.4-58.9c-32.5-32.5-85.4-32.5-117.9,0c-12.9,12.9-12.9,36.4-11.3,73.4
	C114,653.2,115,677,111.3,700.9z M299.1,420.3l-7.3,6.7c-13.2,12.2-21.9,20.3-24.4,24.5c-5.9,10-6.1,22.6-0.6,32.8
	c2.3,4.3,10.7,12.7,23.4,25.4c12.7,12.7,21.1,21.1,25.4,23.4c10.2,5.5,22.8,5.3,32.8-0.6c4.2-2.5,12.2-11.2,24.4-24.3l24.5,22.6
	l-24.5-22.6l6.7-7.3L299.1,420.3z M348.1,375l76.9,76.9l252.5-272.7c14.7-15.9,14.2-40.3-1.1-55.7c-15.3-15.3-39.8-15.8-55.7-1.1
	L348.1,375z"/>
</svg>
