<?xml version="1.0" encoding="utf-8"?>
<!-- Generator: Adobe Illustrator 27.0.0, SVG Export Plug-In . SVG Version: 6.00 Build 0)  -->
<svg version="1.1" id="Layer_1" xmlns="http://www.w3.org/2000/svg" xmlns:xlink="http://www.w3.org/1999/xlink" x="0px" y="0px"
	 viewBox="0 0 800 800" style="enable-background:new 0 0 800 800;" xml:space="preserve">
<path d="M138.1,758.6c-12.9,0-25.7-0.3-38.2-0.7c-11.7-0.3-22.7-0.6-33.2-0.6c-8.4,0-16.1-4.4-20.5-11.5s-4.7-16-0.9-23.5
	c13.1-25.6,11.8-57.7,10.5-88.8c-1.8-41.7-3.6-84.7,28.1-116.4c33.2-33.2,79-46.3,122.1-39.3c-2-19.1,2.1-38.6,12-55.5
	c6.7-11.4,16.1-20.1,34.8-37.4L581.8,80.4c18.6-17.2,42.8-26.4,68.1-25.9C675.2,55,699.1,65.1,717,83c17.9,17.9,28,41.7,28.5,67.1
	c0.5,25.3-8.7,49.5-25.9,68.1L443.8,516c-0.2,0.2-0.4,0.4-0.5,0.6L415,547.1v0l-17.6-16.3l17.5,16.4c-17.3,18.7-25.9,28-37.3,34.7
	c-16.8,10-36.4,14-55.4,12.1c1.2,7.4,1.8,15,1.8,22.7c0,37.6-14.6,72.9-41.2,99.5l0,0C246.2,752.8,191.6,758.6,138.1,758.6z
	 M100.1,709.9c0.3,0,0.7,0,1,0c54.8,1.5,116.8,3.1,147.7-27.8c17.5-17.5,27.1-40.8,27.1-65.5c0-24.8-9.6-48-27.1-65.5
	c-36.1-36.1-94.9-36.1-131.1,0c-16.8,16.8-15.5,46.3-14.1,80.4C104.8,656.3,105.9,683.3,100.1,709.9z M299.4,407.4l-13.9,12.8
	c-14.8,13.7-22.9,21.2-26.1,26.6c-7.6,12.8-7.9,28.9-0.8,42c3,5.5,10.8,13.3,25.1,27.6c14.2,14.2,22.1,22.1,27.6,25.1
	c13.1,7.1,29.2,6.8,42-0.8c5.4-3.2,12.9-11.3,26.5-26l17.7,16.2l-17.6-16.3l12.8-13.9L299.4,407.4z M334.6,374.7l90.7,90.7
	l259.1-279.8c18.1-19.6,17.6-49.7-1.3-68.6c-18.9-18.9-49-19.5-68.6-1.3L334.6,374.7z"/>
</svg>
