<?xml version="1.0" encoding="utf-8"?>
<!-- Generator: Adobe Illustrator 27.0.0, SVG Export Plug-In . SVG Version: 6.00 Build 0)  -->
<svg version="1.1" id="Layer_1" xmlns="http://www.w3.org/2000/svg" xmlns:xlink="http://www.w3.org/1999/xlink" x="0px" y="0px"
	 viewBox="0 0 800 800" style="enable-background:new 0 0 800 800;" xml:space="preserve">
<path d="M573.3,724H226.7c-59.8,0-89.8,0-116.3-13.5c-23.5-12-42.2-30.7-54.2-54.2C42.7,629.8,42.7,599.8,42.7,540V206.7
	c0-39.8,0-61.8,9.9-81.2c8.7-17.2,22.4-30.9,39.6-39.6c19.4-9.9,41.3-9.9,81.2-9.9h127.4c25.7,0,39.9,0,54.3,5
	c12.6,4.4,24.3,11.6,33.9,20.9c10.9,10.6,17.2,23.3,28.7,46.3l30.6,61.1h125.2c59.8,0,89.8,0,116.3,13.5
	c23.5,12,42.2,30.7,54.2,54.2c13.5,26.5,13.5,56.5,13.5,116.3V540c0,59.8,0,89.8-13.5,116.3c-12,23.5-30.7,42.2-54.2,54.2
	C663.1,724,633.1,724,573.3,724z M90.7,257.3V540c0,52.1,0,78.2,8.3,94.5c7.3,14.4,18.8,25.9,33.2,33.2c16.3,8.3,42.4,8.3,94.5,8.3
	h346.7c52.1,0,78.2,0,94.5-8.3c14.4-7.3,25.9-18.8,33.2-33.2c8.3-16.3,8.3-42.4,8.3-94.5V393.3c0-52.1,0-78.2-8.3-94.5
	c-7.3-14.4-18.8-25.9-33.2-33.2c-16.3-8.3-42.4-8.3-94.5-8.3H433.8c-0.3,0-0.7,0-1,0H90.7z M90.7,209.3h303.8l-19.8-39.6
	c-9.2-18.4-14.3-28.5-19.4-33.5c-4.5-4.4-10-7.8-15.9-9.9c-6.8-2.3-18.1-2.3-38.6-2.3H173.3c-32.4,0-50.2,0-59.4,4.6
	c-8.1,4.1-14.5,10.6-18.6,18.6c-4.7,9.1-4.7,27-4.7,59.4V209.3z"/>
</svg>
