<?xml version="1.0" encoding="utf-8"?>
<!-- Generator: Adobe Illustrator 27.0.0, SVG Export Plug-In . SVG Version: 6.00 Build 0)  -->
<svg version="1.1" id="Layer_1" xmlns="http://www.w3.org/2000/svg" xmlns:xlink="http://www.w3.org/1999/xlink" x="0px" y="0px"
	 viewBox="0 0 800 800" style="enable-background:new 0 0 800 800;" xml:space="preserve">
<path d="M573.3,733.3H226.7c-59.3,0-92,0-120.5-14.5c-25.3-12.9-45.4-33-58.3-58.3C33.3,632,33.3,599.3,33.3,540V206.7
	c0-41.3,0-64,10.9-85.4c9.6-18.9,24.8-34.1,43.7-43.7c21.4-10.9,44.1-10.9,85.4-10.9h127.4c26.7,0,41.5,0,57.3,5.5
	c13.9,4.8,26.8,12.8,37.4,23.1c12,11.7,18.6,24.9,30.5,48.8l28,56h119.4c59.3,0,92,0,120.5,14.5c25.3,12.9,45.4,33,58.3,58.3
	c14.5,28.5,14.5,61.2,14.5,120.5V540c0,59.3,0,92-14.5,120.5c-12.9,25.3-33,45.4-58.3,58.3C665.3,733.3,632.7,733.3,573.3,733.3z
	 M100,266.7V540c0,49,0,76,7.3,90.3c6.4,12.6,16.5,22.7,29.1,29.1c14.3,7.3,41.3,7.3,90.3,7.3h346.7c49,0,76,0,90.3-7.3
	c12.6-6.4,22.7-16.5,29.1-29.1C700,616,700,589,700,540V393.3c0-49,0-76-7.3-90.3c-6.4-12.6-16.5-22.7-29.1-29.1
	c-14.3-7.3-41.3-7.3-90.3-7.3H434.1c-0.5,0-0.9,0-1.4,0H100z M100,200h279.4l-13.1-26.1c-8.5-16.9-13.6-27.1-17.5-31
	c-3.5-3.4-7.8-6.1-12.5-7.7c-5.3-1.8-16.7-1.8-35.6-1.8H173.3c-28.9,0-48,0-55.1,3.6c-6.3,3.2-11.3,8.3-14.6,14.6
	C100.3,158.1,100,174.8,100,200z"/>
</svg>
