<?xml version="1.0" encoding="utf-8"?>
<!-- Generator: Adobe Illustrator 27.0.0, SVG Export Plug-In . SVG Version: 6.00 Build 0)  -->
<svg version="1.1" id="Layer_1" xmlns="http://www.w3.org/2000/svg" xmlns:xlink="http://www.w3.org/1999/xlink" x="0px" y="0px"
	 viewBox="0 0 800 800" style="enable-background:new 0 0 800 800;" xml:space="preserve">
<path d="M511.2,724H126.7c-11.5,0-19.8,0-28.5-4.4c-7.7-3.9-13.8-10.1-17.8-17.8c-4.4-8.7-4.4-17-4.4-28.5V288.8
	c0-9.4,0-15.1,1.6-21.7c1.4-5.9,3.7-11.4,6.9-16.6c3.5-5.8,7.6-9.8,14.2-16.4L234.1,98.7c6.6-6.6,10.7-10.7,16.4-14.2
	c5.1-3.1,10.7-5.5,16.6-6.9c6.6-1.6,12.3-1.6,21.7-1.6h384.6c11.5,0,19.8,0,28.5,4.4c7.7,3.9,13.9,10.1,17.8,17.8
	c4.4,8.7,4.4,17,4.4,28.5v384.6c0,9.4,0,15.1-1.6,21.7c-1.4,5.9-3.7,11.4-6.9,16.6c-3.5,5.8-7.6,9.8-14.2,16.4L565.9,701.3
	c-6.6,6.6-10.7,10.7-16.4,14.2c-5.1,3.1-10.7,5.5-16.6,6.9C526.3,724,520.6,724,511.2,724z M124,676c0.9,0,1.8,0,2.7,0h382.7V290.7
	H124v382.7C124,674.2,124,675.1,124,676z M557.3,276.6v365.5L667.4,532c3.3-3.3,6.6-6.6,7.2-7.6c0.5-0.8,0.9-1.7,1.1-2.7
	c0.3-1.1,0.3-5.8,0.3-10.5V157.9L557.3,276.6z M157.9,242.7h365.5L642.1,124H288.8c-4.6,0-9.4,0-10.5,0.3c-1,0.2-1.9,0.6-2.7,1.1
	c-0.9,0.6-4.3,4-7.6,7.2L157.9,242.7z"/>
</svg>
