<?xml version="1.0" encoding="utf-8"?>
<!-- Generator: Adobe Illustrator 27.0.0, SVG Export Plug-In . SVG Version: 6.00 Build 0)  -->
<svg version="1.1" id="Layer_1" xmlns="http://www.w3.org/2000/svg" xmlns:xlink="http://www.w3.org/1999/xlink" x="0px" y="0px"
	 viewBox="0 0 800 800" style="enable-background:new 0 0 800 800;" xml:space="preserve">
<path d="M511.2,733.3H126.7c-12.3,0-22,0-32.7-5.4c-9.5-4.8-17-12.4-21.9-21.9c-5.4-10.7-5.4-20.9-5.4-32.7V288.8
	c0-9.7,0-16.2,1.8-23.8c1.6-6.8,4.3-13.3,8-19.3c4.1-6.7,8.7-11.3,15.6-18.2L227.5,92.1c6.9-6.9,11.4-11.4,18.2-15.6
	c6-3.7,12.5-6.3,19.3-8c7.7-1.8,14.1-1.8,23.8-1.8h384.6c11.8,0,22,0,32.7,5.4c9.5,4.8,17,12.4,21.9,21.9
	c5.4,10.7,5.4,20.4,5.4,32.7v384.6c0,9.7,0,16.2-1.8,23.8c-1.6,6.8-4.3,13.3-8,19.3c-4.1,6.7-8.7,11.3-15.6,18.2L572.5,708
	c-6.9,6.9-11.4,11.4-18.2,15.6c-6,3.7-12.5,6.3-19.3,8C527.4,733.3,521,733.3,511.2,733.3z M180.5,666.7H500v-100H280.5L180.5,666.7
	z M566.7,566.7v52.9l52.9-52.9H566.7z M133.3,300v319.5l100-100V300H133.3z M566.7,500h100V180.5l-100,100V500z M300,500h200V300
	H300V500z M300,233.3h219.5l100-100H300V233.3z M180.5,233.3h52.9v-52.9L180.5,233.3z"/>
</svg>
