<?xml version="1.0" encoding="utf-8"?>
<!-- Generator: Adobe Illustrator 27.0.0, SVG Export Plug-In . SVG Version: 6.00 Build 0)  -->
<svg version="1.1" id="Layer_1" xmlns="http://www.w3.org/2000/svg" xmlns:xlink="http://www.w3.org/1999/xlink" x="0px" y="0px"
	 viewBox="0 0 800 800" style="enable-background:new 0 0 800 800;" xml:space="preserve">
<path d="M488.3,682.7H142.8c-10.4,0-17.9,0-25.8-4.1c-7-3.6-12.6-9.2-16.2-16.2c-4-7.9-4-15.5-4-25.8V291.1c0-8.5,0-13.6,1.4-19.6
	c1.3-5.3,3.4-10.4,6.2-15.1c3.2-5.3,6.8-8.9,12.8-14.9l121.7-121.7c6-6,9.6-9.6,14.9-12.8c4.7-2.9,9.7-5,15.1-6.2
	c6-1.4,11.1-1.4,19.6-1.4h345.5c10.4,0,17.9,0,25.8,4c7,3.6,12.7,9.2,16.2,16.2c4,7.9,4,15.4,4,25.8v345.5c0,8.5,0,13.6-1.4,19.6
	c-1.3,5.3-3.4,10.4-6.2,15.1c-3.2,5.2-6.8,8.9-12.8,14.9L537.8,662.1c-6,6-9.6,9.6-14.9,12.8c-4.7,2.9-9.7,5-15.1,6.2
	C501.9,682.7,496.7,682.7,488.3,682.7z M141.2,644.9C141.2,644.9,141.2,644.9,141.2,644.9C141.2,644.9,141.2,644.9,141.2,644.9z
	 M141,638.3c0.6,0,1.2,0,1.8,0h343.1V293.4H141v343.1C141,637.1,141,637.7,141,638.3z M134.4,638.1
	C134.4,638.1,134.4,638.1,134.4,638.1C134.4,638.1,134.4,638.1,134.4,638.1z M530.3,280.4V607l97.8-97.8c2.9-2.9,5.8-5.8,6.4-6.7
	c0.4-0.7,0.7-1.5,0.9-2.2c0.2-1,0.2-5.2,0.2-9.3V175L530.3,280.4z M172.4,249.1h326.5l105.4-105.4H288.4c-4.1,0-8.3,0-9.3,0.2
	c-0.8,0.2-1.5,0.5-2.2,0.9c-0.8,0.5-3.8,3.5-6.7,6.4L172.4,249.1z"/>
</svg>
