<?xml version="1.0" encoding="utf-8"?>
<!-- Generator: Adobe Illustrator 27.0.0, SVG Export Plug-In . SVG Version: 6.00 Build 0)  -->
<svg version="1.1" id="Layer_1" xmlns="http://www.w3.org/2000/svg" xmlns:xlink="http://www.w3.org/1999/xlink" x="0px" y="0px"
	 viewBox="0 0 800 800" style="enable-background:new 0 0 800 800;" xml:space="preserve">
<path d="M400,757.3c-0.4,0-0.8,0-1.2,0c0,0-0.1,0-0.1,0c0,0-0.1,0-0.1,0c0,0,0,0,0,0c-2.6-0.2-5-0.7-7.3-1.6c-3-1.2-5.8-3-8.2-5.4
	l-100-100c-9.4-9.4-9.4-24.6,0-33.9c9.4-9.4,24.6-9.4,33.9,0l59,59V424H124.6l59,59c9.4,9.4,9.4,24.6,0,33.9
	c-9.4,9.4-24.6,9.4-33.9,0l-100-100c0,0-0.1-0.1-0.1-0.1c0,0,0,0,0,0c0,0-0.1-0.1-0.1-0.1c0,0,0,0,0,0c0,0-0.1-0.1-0.1-0.1
	c0,0,0,0,0,0c0,0,0,0-0.1-0.1c-2-2.1-3.5-4.4-4.6-6.9c0,0,0,0,0,0c0,0,0,0,0-0.1c-1.3-2.9-2-6.2-2-9.6s0.7-6.6,2-9.6c0,0,0,0,0-0.1
	c0,0,0,0,0,0c1.1-2.5,2.6-4.9,4.6-6.9c0,0,0,0,0.1-0.1c0,0,0,0,0,0c0,0,0.1-0.1,0.1-0.1c0,0,0,0,0,0c0,0,0.1-0.1,0.1-0.1
	c0,0,0,0,0,0c0,0,0.1-0.1,0.1-0.1c0,0,0,0,0,0l100-100c9.4-9.4,24.6-9.4,33.9,0c9.4,9.4,9.4,24.6,0,33.9l-59,59H376V124.6l-59,59
	c-9.4,9.4-24.6,9.4-33.9,0c-9.4-9.4-9.4-24.6,0-33.9l100-100c0,0,0.1-0.1,0.1-0.1c0,0,0,0,0,0c0,0,0.1-0.1,0.1-0.1c0,0,0,0,0,0
	c0,0,0.1-0.1,0.1-0.1c0,0,0,0,0,0c0,0,0,0,0.1-0.1c2.1-2,4.4-3.5,6.9-4.6c0,0,0,0,0,0c0,0,0,0,0.1,0c2.9-1.3,6.2-2,9.6-2
	s6.6,0.7,9.6,2c0,0,0,0,0.1,0c0,0,0,0,0,0c2.5,1.1,4.9,2.6,6.9,4.6c0,0,0,0,0.1,0.1c0,0,0,0,0,0c0,0,0.1,0.1,0.1,0.1c0,0,0,0,0,0
	c0,0,0.1,0.1,0.1,0.1c0,0,0,0,0,0c0,0,0.1,0.1,0.1,0.1c0,0,0,0,0,0l100,100c9.4,9.4,9.4,24.6,0,33.9c-9.4,9.4-24.6,9.4-33.9,0
	l-59-59V376h251.4l-59-59c-9.4-9.4-9.4-24.6,0-33.9c9.4-9.4,24.6-9.4,33.9,0l100,100c2.4,2.4,4.2,5.2,5.4,8.2
	c0.9,2.3,1.4,4.7,1.6,7.3c0,0,0,0,0,0c0,0,0,0.1,0,0.1c0,0,0,0,0,0.1c0,0,0,0,0,0c0,0.4,0,0.8,0,1.2s0,0.8,0,1.2c0,0,0,0,0,0
	c0,0,0,0,0,0.1c0,0,0,0.1,0,0.1c0,0,0,0,0,0c-0.2,2.6-0.7,5-1.6,7.3c-1.2,3-3,5.8-5.4,8.2l-100,100c-9.4,9.4-24.6,9.4-33.9,0
	c-9.4-9.4-9.4-24.6,0-33.9l59-59H424v251.4l59-59c9.4-9.4,24.6-9.4,33.9,0c9.4,9.4,9.4,24.6,0,33.9l-100,100
	c-2.4,2.4-5.2,4.2-8.2,5.4c-2.3,0.9-4.7,1.4-7.3,1.6c0,0,0,0,0,0c0,0-0.1,0-0.1,0c0,0-0.1,0-0.1,0
	C400.8,757.3,400.4,757.3,400,757.3z"/>
</svg>
