<?xml version="1.0" encoding="utf-8"?>
<!-- Generator: Adobe Illustrator 27.0.0, SVG Export Plug-In . SVG Version: 6.00 Build 0)  -->
<svg version="1.1" id="Layer_1" xmlns="http://www.w3.org/2000/svg" xmlns:xlink="http://www.w3.org/1999/xlink" x="0px" y="0px"
	 viewBox="0 0 800 800" style="enable-background:new 0 0 800 800;" xml:space="preserve">
<path d="M540,723h-6.7c-12.7,0-23-10.3-23-23s10.3-23,23-23h6.7c52.3,0,78.5,0,95-8.4c14.6-7.4,26.2-19.1,33.6-33.6
	c8.4-16.5,8.4-42.7,8.4-95V260c0-52.3,0-78.5-8.4-95c-7.4-14.6-19.1-26.2-33.6-33.7c-16.5-8.4-42.7-8.4-95-8.4H260
	c-52.3,0-78.5,0-95,8.4c-14.6,7.4-26.2,19.1-33.7,33.6c-8.4,16.5-8.4,42.7-8.4,95v6.7c0,12.7-10.3,23-23,23s-23-10.3-23-23V260
	c0-59.6,0-89.5,13.4-115.8c11.9-23.3,30.5-41.9,53.8-53.8C170.5,77,200.4,77,260,77h280c59.6,0,89.5,0,115.8,13.4
	c23.3,11.9,41.9,30.5,53.8,53.8C723,170.5,723,200.4,723,260v280c0,59.6,0,89.5-13.4,115.8c-11.9,23.3-30.5,41.9-53.8,53.8
	C629.5,723,599.6,723,540,723z M293.3,723h-86.7c-39.7,0-61.5,0-80.7-9.8c-17-8.6-30.5-22.2-39.2-39.2C77,654.9,77,633,77,593.3
	v-86.7c0-39.7,0-61.5,9.8-80.7c8.7-17,22.2-30.5,39.2-39.2c19.2-9.8,41-9.8,80.7-9.8h86.7c39.7,0,61.5,0,80.7,9.8
	c1.5,0.7,2.9,1.5,4.3,2.3l132.8-132.8H400c-12.7,0-23-10.3-23-23c0-12.7,10.3-23,23-23h166.7c3.2,0,6.2,0.6,8.9,1.8c0,0,0,0,0,0
	c0,0,0.1,0,0.1,0c2.6,1.1,5.1,2.8,7.3,4.9c2.3,2.3,4,4.9,5.1,7.8c0,0,0,0.1,0,0.1c0,0,0,0,0,0c0.9,2.2,1.4,4.6,1.5,7.1c0,0,0,0,0,0
	c0,0,0,0,0,0.1c0,0.4,0,0.9,0,1.3V400c0,12.7-10.3,23-23,23c-12.7,0-23-10.3-23-23V288.9L410.9,421.6c0.8,1.4,1.6,2.9,2.3,4.3
	c9.8,19.2,9.8,41,9.8,80.7v86.7c0,39.7,0,61.5-9.8,80.7c-8.7,17-22.2,30.5-39.2,39.2C354.9,723,333,723,293.3,723z M206.7,423
	c-32.6,0-50.5,0-59.8,4.8c-8.3,4.2-14.9,10.8-19.1,19.1c-4.8,9.3-4.8,27.3-4.8,59.8v86.7c0,32.6,0,50.5,4.8,59.8
	c4.2,8.3,10.8,14.9,19.1,19.1c9.3,4.8,27.3,4.8,59.8,4.8h86.7c32.6,0,50.5,0,59.8-4.8c8.3-4.2,14.9-10.8,19.1-19.1
	c4.8-9.3,4.8-27.3,4.8-59.8v-86.7c0-32.6,0-50.5-4.8-59.8c-4.2-8.3-10.8-14.9-19.1-19.1c-9.3-4.8-27.3-4.8-59.8-4.8H206.7z"/>
</svg>
