<?xml version="1.0" encoding="utf-8"?>
<!-- Generator: Adobe Illustrator 27.0.0, SVG Export Plug-In . SVG Version: 6.00 Build 0)  -->
<svg version="1.1" id="Layer_1" xmlns="http://www.w3.org/2000/svg" xmlns:xlink="http://www.w3.org/1999/xlink" x="0px" y="0px"
	 viewBox="0 0 800 800" style="enable-background:new 0 0 800 800;" xml:space="preserve">
<path d="M400.4,706.4c-42.8,0-85.7-9.1-124.9-26.4c-11.6-5.2-16.8-18.7-11.7-30.4s18.7-16.8,30.4-11.7c36.8,16.3,77.4,24,117.5,22.2
	c42-1.8,81.8-13.5,118.5-34.7c60.2-34.8,103.3-90.9,121.3-158.1c16.3-60.8,10.3-124.1-16.8-180.2l-11,41
	c-3.3,12.3-15.9,19.6-28.2,16.3c-12.3-3.3-19.6-15.9-16.3-28.2l24.4-91.1c1.6-5.9,5.4-10.9,10.7-14c5.3-3.1,11.6-3.9,17.5-2.3
	l91.1,24.4c12.3,3.3,19.6,15.9,16.3,28.2c-3.3,12.3-15.9,19.6-28.2,16.3l-34.2-9.2c31.3,65.7,38.2,139.6,19.2,210.7
	c-21.2,79-71.9,145.1-142.7,186c-42.5,24.5-90.7,38.7-139.5,40.8C409.3,706.3,404.9,706.4,400.4,706.4z M174.2,591.9
	c-2,0-4-0.3-6-0.8l-91.1-24.4c-12.3-3.3-19.6-15.9-16.3-28.2c3.3-12.3,15.9-19.6,28.2-16.3l34.2,9.2
	C91.9,465.7,85,391.8,104.1,320.7c21.2-79,71.9-145.1,142.7-186c42.5-24.5,90.7-38.7,139.5-40.8c47.1-2.1,94.9,7,138.1,26.1
	c11.6,5.2,16.8,18.7,11.7,30.4c-5.2,11.6-18.7,16.8-30.4,11.7c-36.8-16.3-77.4-24-117.5-22.2c-42,1.8-81.8,13.5-118.5,34.7
	c-60.2,34.8-103.3,90.9-121.3,158.1c-16.3,60.8-10.3,124.1,16.8,180.2l11-41c3.3-12.3,15.9-19.6,28.2-16.3
	c12.3,3.3,19.6,15.9,16.3,28.2l-24.4,91.1c-1.6,5.9-5.4,10.9-10.7,14C182.1,590.8,178.2,591.9,174.2,591.9z"/>
</svg>
