<?xml version="1.0" encoding="utf-8"?>
<!-- Generator: Adobe Illustrator 27.0.0, SVG Export Plug-In . SVG Version: 6.00 Build 0)  -->
<svg version="1.1" id="Layer_1" xmlns="http://www.w3.org/2000/svg" xmlns:xlink="http://www.w3.org/1999/xlink" x="0px" y="0px"
	 viewBox="0 0 800 800" style="enable-background:new 0 0 800 800;" xml:space="preserve">
<path d="M566.7,723c-0.5,0-1,0-1.5,0c-7.8,0-16.1,0-25.2,0H260c-9,0-17.4,0-25.2,0c-1.1,0.1-2.2,0.1-3.3,0
	c-41.4-0.3-65.6-2.3-87.4-13.3c-23.3-11.9-41.9-30.5-53.8-53.8C77,629.5,77,599.6,77,540V260c0-59.6,0-89.5,13.4-115.8
	c11.9-23.3,30.5-41.9,53.8-53.8c21.7-11.1,46-13,87.4-13.3c1.1-0.1,2.2-0.1,3.3,0c7.8,0,16.1,0,25.2,0h229.2c17.5,0,27.2,0,37.5,2.5
	c9.2,2.2,17.9,5.8,25.9,10.7c9.1,5.6,15.9,12.4,28.3,24.8L685,219.2c12.4,12.4,19.2,19.2,24.8,28.3c4.9,8,8.5,16.8,10.7,25.9
	c2.5,10.3,2.5,20,2.5,37.5V540c0,59.6,0,89.5-13.4,115.8c-11.9,23.3-30.5,41.9-53.8,53.8c-21.7,11.1-46,13-87.4,13.3
	C567.9,723,567.3,723,566.7,723z M256.3,677c1.2,0,2.4,0,3.7,0h280c1.2,0,2.5,0,3.7,0V486.7c0-10.9,0-22.3-1.1-24.7
	c-1-2-2.6-3.5-4.5-4.5c-2.4-1.1-13.7-1.1-24.7-1.1H286.7c-10.9,0-22.3,0-24.7,1.1c-2,1-3.5,2.6-4.5,4.5c-1.1,2.4-1.1,13.7-1.1,24.7
	V677z M286.7,410.3h226.7c20.9,0,33.5,0,45.6,6.1c10.7,5.4,19.2,13.9,24.6,24.6c6.1,12,6.1,24.7,6.1,45.6v189.9
	c21.3-0.8,35.2-2.8,45.3-7.9c14.6-7.4,26.2-19.1,33.6-33.6c8.4-16.5,8.4-42.7,8.4-95V310.8c0-14.5,0-21.7-1.2-26.8
	c-1.1-4.5-2.8-8.7-5.2-12.6c-2.7-4.4-7.8-9.5-18.1-19.8l-62.8-62.8v24.5c0,20.9,0,33.5-6.1,45.6c-5.4,10.7-14,19.2-24.6,24.6
	c-12,6.1-24.7,6.1-45.6,6.1H286.7c-20.9,0-33.5,0-45.6-6.1c-10.7-5.4-19.2-13.9-24.6-24.6c-6.1-12.1-6.1-24.7-6.1-45.6v-89.9
	c-21.3,0.8-35.2,2.8-45.3,7.9c-14.6,7.4-26.2,19.1-33.7,33.6c-8.4,16.5-8.4,42.7-8.4,95v280c0,52.3,0,78.5,8.4,95
	c7.4,14.6,19.1,26.2,33.6,33.6c10.1,5.2,24,7.2,45.3,7.9V486.7c0-20.9,0-33.5,6.1-45.6c5.4-10.7,13.9-19.2,24.6-24.6
	C253.1,410.3,265.8,410.3,286.7,410.3z M256.3,123v90.3c0,10.9,0,22.3,1.1,24.7c1,1.9,2.6,3.5,4.5,4.5c2.4,1.1,13.7,1.1,24.7,1.1
	h226.7c10.9,0,22.3,0,24.7-1.1c2-1,3.5-2.6,4.5-4.5c1.1-2.4,1.1-13.7,1.1-24.7v-70.5c-7.3-7.2-11.4-11.2-15.1-13.4
	c-3.9-2.4-8.2-4.2-12.6-5.2c-5-1.2-12.3-1.2-26.8-1.2H260C258.8,123,257.5,123,256.3,123z"/>
</svg>
