<?xml version="1.0" encoding="utf-8"?>
<!-- Generator: Adobe Illustrator 27.0.0, SVG Export Plug-In . SVG Version: 6.00 Build 0)  -->
<svg version="1.1" id="Layer_1" xmlns="http://www.w3.org/2000/svg" xmlns:xlink="http://www.w3.org/1999/xlink" x="0px" y="0px"
	 viewBox="0 0 800 800" style="enable-background:new 0 0 800 800;" xml:space="preserve">
<path d="M566.7,724h-331c-9,0-16.7,0-23.3-0.4c-30.3-0.9-50.3-3.8-68.6-13.1c-23.5-12-42.2-30.7-54.2-54.2C76,629.8,76,599.8,76,540
	V260c0-59.8,0-89.8,13.5-116.3c12-23.5,30.7-42.2,54.2-54.2C170.2,76,200.2,76,260,76h156.7c13.3,0,24,10.7,24,24
	c0,13.3-10.7,24-24,24H260c-52.1,0-78.2,0-94.5,8.3c-14.4,7.3-25.9,18.8-33.2,33.2c-8.3,16.3-8.3,42.4-8.3,94.5v280
	c0,52.1,0,78.2,8.3,94.5c7.3,14.4,18.8,25.9,33.2,33.2c1.9,0.9,3.8,1.8,6,2.5c4.3-10.9,14.3-20.1,30.1-34.4l282-256.4l16.1,17.8
	l-16.1-17.8c13.6-12.3,21.8-19.8,33.5-23.6c10.3-3.4,21.4-3.7,31.9-1c11.9,3.1,20.6,10,34.9,21.4l93.2,74.6
	c13.6,10.9,21.1,16.9,27.6,25.1c8.1,10.3,13.9,22.5,16.9,35.3c2.4,10.2,2.4,19.8,2.4,37.2c0,6.1,0,11.8,0,17.2c0,0.3,0,0.6,0,0.9
	c0,33.1,0,49.7-4.2,65.4c-1.4,5-3,10-5,14.7c-0.3,0.6-0.5,1.3-0.8,1.9c-12.6,29.5-35.8,52.6-65.2,65.2c-0.7,0.3-1.3,0.6-2,0.8
	c-4.8,1.9-9.6,3.6-14.7,4.9C616.3,724,599.7,724,566.7,724z M260,676h288.5c44,0,66.4,0,80.7-5.9c18.4-7.7,33.2-22.5,40.9-40.9
	c5.8-14.3,5.8-36.7,5.8-80.7c0-14.3,0-21.4-1.1-26.2c-1.4-6-4.2-11.7-8-16.6c-3.1-3.9-8.6-8.4-19.8-17.3l-93.2-74.6
	c-7.2-5.8-14.6-11.7-16.9-12.4c-1.7-0.4-3.5-0.4-5.2,0.2c-2.2,0.9-9.2,7.3-16,13.4l-282,256.3c-1.7,1.5-3.4,3.1-5,4.5
	C238.1,676,248.4,676,260,676z M283.3,374c-50,0-90.7-40.7-90.7-90.7c0-50,40.7-90.7,90.7-90.7s90.7,40.7,90.7,90.7
	C374,333.3,333.3,374,283.3,374z M283.3,240.7c-23.5,0-42.7,19.1-42.7,42.7c0,23.5,19.1,42.7,42.7,42.7s42.7-19.1,42.7-42.7
	C326,259.8,306.9,240.7,283.3,240.7z M633.3,290.7c-13.3,0-24-10.7-24-24v-76h-76c-13.3,0-24-10.7-24-24c0-13.3,10.7-24,24-24h76
	v-76c0-13.3,10.7-24,24-24s24,10.7,24,24v76h76c13.3,0,24,10.7,24,24c0,13.3-10.7,24-24,24h-76v76
	C657.3,279.9,646.6,290.7,633.3,290.7z"/>
</svg>
