<?xml version="1.0" encoding="utf-8"?>
<!-- Generator: Adobe Illustrator 27.0.0, SVG Export Plug-In . SVG Version: 6.00 Build 0)  -->
<svg version="1.1" id="Layer_1" xmlns="http://www.w3.org/2000/svg" xmlns:xlink="http://www.w3.org/1999/xlink" x="0px" y="0px"
	 viewBox="0 0 800 800" style="enable-background:new 0 0 800 800;" xml:space="preserve">
<path d="M400,752.5c-3.9,0-7.7-0.4-11.6-1.2c-8.6-1.8-15.2-5.4-26-11.4l-246.7-137c-11.4-6.4-18.4-10.2-24.6-17
	c-5.6-6-9.7-13.1-12.3-20.9c-2.9-8.8-2.9-16.7-2.9-29.8V264.7c0-13.1,0-21,2.9-29.8c2.6-7.8,6.7-14.8,12.3-20.9
	c6.3-6.8,13.2-10.6,24.6-17l246.7-137c10.8-6,17.4-9.7,26-11.4c7.7-1.6,15.4-1.6,23.1,0c8.6,1.8,15.2,5.4,26,11.4l246.7,137
	c11.4,6.4,18.3,10.2,24.6,17c5.6,6.1,9.7,13.1,12.3,20.9c2.9,8.7,2.9,16.7,2.9,29.7v168.6c0,13.3-10.7,24-24,24s-24-10.7-24-24
	V274.1l-252,140v278.4l31-17.2c11.6-6.4,26.2-2.3,32.6,9.3c6.4,11.6,2.3,26.2-9.3,32.6l-40.8,22.6c-10.8,6-17.4,9.7-26,11.4
	C407.7,752.2,403.9,752.5,400,752.5z M124,274.1v261.2c0,6.2,0,13.3,0.5,14.7c0.4,1.2,1.1,2.4,2,3.4c1,1.1,7.2,4.5,12.6,7.6
	L376,692.5V414.1L124,274.1z M149.4,233.3L400,372.5l250.6-139.2L414.2,102c-5.1-2.9-11-6.1-12.4-6.4c-1.2-0.3-2.5-0.3-3.8,0
	c-1.4,0.3-7.2,3.5-12.4,6.4L149.4,233.3z M733.3,624h-200c-13.3,0-24-10.7-24-24s10.7-24,24-24h200c13.3,0,24,10.7,24,24
	S746.6,624,733.3,624z"/>
</svg>
