<?xml version="1.0" encoding="utf-8"?>
<!-- Generator: Adobe Illustrator 27.0.0, SVG Export Plug-In . SVG Version: 6.00 Build 0)  -->
<svg version="1.1" id="Layer_1" xmlns="http://www.w3.org/2000/svg" xmlns:xlink="http://www.w3.org/1999/xlink" x="0px" y="0px"
	 viewBox="0 0 800 800" style="enable-background:new 0 0 800 800;" xml:space="preserve">
<path d="M334,743.1c-6.7,0-13.4-1.7-19.4-4.9c-13.6-7.4-18.7-21.5-27.9-47.2L96.5,161.3c-7.5-20.9-12-33.4-7.3-47
	c4.1-11.9,13.3-21,25.1-25.1c13.6-4.7,26.1-0.2,47,7.3L691,286.6c25.6,9.2,39.8,14.3,47.2,27.9c6.4,11.8,6.6,26,0.5,37.9
	c-7,13.8-21,19.2-46.4,29.1l-222.6,86.6c-0.4,0.1-0.7,0.3-1.1,0.4c-0.1,0.4-0.3,0.7-0.4,1.1l-86.6,222.6
	c-9.9,25.4-15.3,39.4-29.1,46.4C346.6,741.6,340.3,743.1,334,743.1z M139.8,139.8"/>
</svg>
