<?xml version="1.0" encoding="utf-8"?>
<!-- Generator: Adobe Illustrator 27.0.0, SVG Export Plug-In . SVG Version: 6.00 Build 0)  -->
<svg version="1.1" id="Layer_1" xmlns="http://www.w3.org/2000/svg" xmlns:xlink="http://www.w3.org/1999/xlink" x="0px" y="0px"
	 viewBox="0 0 800 800" style="enable-background:new 0 0 800 800;" xml:space="preserve">
<style type="text/css">
	.st0{fill:#231F20;}
</style>
<path class="st0" d="M688.3,246.3h-86.9c-22.9,0-41.6-18.7-41.6-41.6v-86.9c0-22.9,18.7-41.6,41.6-41.6h86.9
	c22.9,0,41.6,18.7,41.6,41.6v86.9C729.9,227.6,711.2,246.3,688.3,246.3z M607.8,198.3h74v-74h-74V198.3z"/>
<path class="st0" d="M198.6,723.8h-86.9c-22.9,0-41.6-18.7-41.6-41.6v-86.9c0-22.9,18.7-41.6,41.6-41.6h86.9
	c22.9,0,41.6,18.7,41.6,41.6v86.9C240.2,705.1,221.5,723.8,198.6,723.8z M118.1,675.8h74v-74h-74V675.8z"/>
<path class="st0" d="M179.1,557.3h-48c0-137.8,38.4-243.9,114.1-315.6c73.2-69.3,179.5-104.5,315.8-104.5v48
	c-123.6,0-218.8,30.7-282.8,91.3C212.5,338.8,179.1,433.2,179.1,557.3z"/>
</svg>
