<?xml version="1.0" encoding="utf-8"?>
<!-- Generator: Adobe Illustrator 27.0.0, SVG Export Plug-In . SVG Version: 6.00 Build 0)  -->
<svg version="1.1" id="Layer_1" xmlns="http://www.w3.org/2000/svg" xmlns:xlink="http://www.w3.org/1999/xlink" x="0px" y="0px"
	 viewBox="0 0 800 800" style="enable-background:new 0 0 800 800;" xml:space="preserve">
<path d="M600,624c-6.1,0-12.3-2.3-17-7l-183-183L217,617c-9.4,9.4-24.6,9.4-33.9,0c-9.4-9.4-9.4-24.6,0-33.9l183-183L183,217
	c-9.4-9.4-9.4-24.6,0-33.9c9.4-9.4,24.6-9.4,33.9,0l183,183l183-183c9.4-9.4,24.6-9.4,33.9,0c9.4,9.4,9.4,24.6,0,33.9l-183,183
	l183,183c9.4,9.4,9.4,24.6,0,33.9C612.3,621.7,606.1,624,600,624z"/>
</svg>
