<?xml version="1.0" encoding="utf-8"?>
<!-- Generator: Adobe Illustrator 27.0.0, SVG Export Plug-In . SVG Version: 6.00 Build 0)  -->
<svg version="1.1" id="Layer_1" xmlns="http://www.w3.org/2000/svg" xmlns:xlink="http://www.w3.org/1999/xlink" x="0px" y="0px"
	 viewBox="0 0 800 800" style="enable-background:new 0 0 800 800;" xml:space="preserve">
<path d="M566.7,724H260c-59.8,0-89.8,0-116.3-13.5c-23.5-12-42.2-30.7-54.2-54.2C76,629.8,76,599.8,76,540V260
	c0-59.8,0-89.8,13.5-116.3c7.1-13.9,23.6-39.5,54.7-54.4c20.5-9.9,39.2-11,70.4-12.9c15.3-0.9,30.8-1.1,46-0.4h156.1
	c13.3,0,24,10.7,24,24c0,13.3-10.7,24-24,24H260c-0.4,0-0.8,0-1.1,0c-13.7-0.7-27.6-0.6-41.4,0.3c-30.1,1.8-41.1,2.8-52.5,8.3
	c-19.1,9.2-29.2,26.1-32.7,33c-8.3,16.3-8.3,42.4-8.3,94.5v280c0,52.1,0,78.2,8.3,94.5c7.3,14.4,18.8,25.9,33.2,33.2
	c16.3,8.3,42.4,8.3,94.5,8.3h306.7c27.9,0,43.3,0,53-2.6c25.8-6.9,46.3-27.1,53.5-52.8c1.3-11,2.8-81.4,2.8-245.6
	c0-13.3,10.7-24,24-24s24,10.7,24,24c0,241.3-2.9,252-4.2,257.1c-11.4,42.7-45,76.3-87.7,87.7C616.3,724,599.7,724,566.7,724z
	 M673.1,621.1C673.1,621.1,673.1,621.1,673.1,621.1C673.1,621.1,673.1,621.1,673.1,621.1z M633.3,290.7c-13.3,0-24-10.7-24-24v-76
	h-76c-13.3,0-24-10.7-24-24c0-13.3,10.7-24,24-24h76v-76c0-13.3,10.7-24,24-24s24,10.7,24,24v76h76c13.3,0,24,10.7,24,24
	c0,13.3-10.7,24-24,24h-76v76C657.3,279.9,646.6,290.7,633.3,290.7z"/>
<path d="M234,724.8c-13.3,0-24-10.7-24-24V100.5c0-13.3,10.7-24,24-24s24,10.7,24,24v600.4C258,714.1,247.3,724.8,234,724.8z"/>
<path d="M207.5,280.5H106.5c-13.3,0-24-10.7-24-24s10.7-24,24-24h101.1c13.3,0,24,10.7,24,24S220.8,280.5,207.5,280.5z"/>
<path d="M215.9,422.9H114.8c-13.3,0-24-10.7-24-24s10.7-24,24-24h101.1c13.3,0,24,10.7,24,24S229.1,422.9,215.9,422.9z"/>
<path d="M215.9,565.3H114.8c-13.3,0-24-10.7-24-24s10.7-24,24-24h101.1c13.3,0,24,10.7,24,24S229.1,565.3,215.9,565.3z"/>
<path d="M671.2,422.9h-83.9c-13.3,0-24-10.7-24-24s10.7-24,24-24h83.9c13.3,0,24,10.7,24,24S684.5,422.9,671.2,422.9z"/>
<path d="M675.3,567h-83.9c-13.3,0-24-10.7-24-24s10.7-24,24-24h83.9c13.3,0,24,10.7,24,24S688.5,567,675.3,567z"/>
<path d="M564,723.9c-13.3,0-24-10.7-24-24V373c0-13.3,10.7-24,24-24s24,10.7,24,24v326.9C588,713.2,577.3,723.9,564,723.9z"/>
</svg>
