<?xml version="1.0" encoding="utf-8"?>
<!-- Generator: Adobe Illustrator 27.0.0, SVG Export Plug-In . SVG Version: 6.00 Build 0)  -->
<svg version="1.1" id="Layer_1" xmlns="http://www.w3.org/2000/svg" xmlns:xlink="http://www.w3.org/1999/xlink" x="0px" y="0px"
	 viewBox="0 0 800 800" style="enable-background:new 0 0 800 800;" xml:space="preserve">
<path d="M243.8,396.3c-6.1,0-12.3-2.3-17-7L93.5,256c-2.4-2.4-4.1-5.1-5.3-8l0,0l0,0c-1-2.5-1.6-5.2-1.7-8c0-0.3,0-0.6,0-0.9
	s0-0.6,0-0.9c0.1-2.8,0.7-5.5,1.7-8l0,0l0,0c1.2-2.9,2.9-5.7,5.3-8L226.9,88.7c9.4-9.4,24.6-9.4,33.9,0c9.4,9.4,9.4,24.6,0,33.9
	L168.4,215h309.1c13.3,0,24,10.7,24,24s-10.7,24-24,24H168.4l92.4,92.4c9.4,9.4,9.4,24.6,0,33.9C256.1,394,250,396.3,243.8,396.3z"
	/>
<path d="M263,688.7c-38,0-80.5-8.9-127.9-26.7c-12.4-4.6-18.7-18.5-14.1-30.9s18.5-18.7,30.9-14.1c44.2,16.5,83.3,24.5,116.1,23.6
	c28-0.7,52.1-7.7,73.7-21.3c41.9-26.4,68.9-73.8,97.5-124c25.2-44.3,51.3-90.1,89.4-121.8c44.8-37.4,98.9-49.3,165.4-36.6
	c13,2.5,21.6,15.1,19.1,28.1S698,386.6,685,384.1c-52.2-10-92.1-1.6-125.6,26.3c-31.4,26.2-54.2,66.3-78.4,108.7
	c-30.3,53.2-61.6,108.1-113.7,140.9C337,679.2,302.4,688.7,263,688.7z"/>
</svg>
