<?xml version="1.0" encoding="utf-8"?>
<!-- Generator: Adobe Illustrator 27.0.0, SVG Export Plug-In . SVG Version: 6.00 Build 0)  -->
<svg version="1.1" id="Layer_1" xmlns="http://www.w3.org/2000/svg" xmlns:xlink="http://www.w3.org/1999/xlink" x="0px" y="0px"
	 viewBox="0 0 800 800" style="enable-background:new 0 0 800 800;" xml:space="preserve">
<style type="text/css">
	.st0{fill:#231F20;}
</style>
<path d="M243.8,396.3c-6.1,0-12.3-2.3-17-7L93.5,256c-2.4-2.4-4.1-5.1-5.3-8c0,0,0,0,0,0c0,0,0,0,0,0c-1-2.5-1.6-5.2-1.7-8
	c0-0.3,0-0.6,0-0.9s0-0.6,0-0.9c0.1-2.8,0.7-5.5,1.7-8c0,0,0,0,0,0c0,0,0,0,0,0c1.2-2.9,2.9-5.7,5.3-8L226.9,88.7
	c9.4-9.4,24.6-9.4,33.9,0c9.4,9.4,9.4,24.6,0,33.9L168.4,215h309.1c13.3,0,24,10.7,24,24s-10.7,24-24,24H168.4l92.4,92.4
	c9.4,9.4,9.4,24.6,0,33.9C256.1,394,250,396.3,243.8,396.3z"/>
<path class="st0" d="M685.7,456.7h-86.9c-22.9,0-41.6-18.7-41.6-41.6v-86.9c0-22.9,18.7-41.6,41.6-41.6h86.9
	c22.9,0,41.6,18.7,41.6,41.6v86.9C727.3,438,708.6,456.7,685.7,456.7z M605.2,408.7h74v-74h-74V408.7z"/>
<rect x="96.9" y="518" transform="matrix(0.8469 -0.5317 0.5317 0.8469 -232.2705 277.1633)" class="st0" width="536.6" height="48"/>
</svg>
